<svg width="33" height="33" viewBox="0 0 33 33" fill="none" xmlns="http://www.w3.org/2000/svg">
<rect width="33" height="33" rx="16.5" fill="#FDA913"/>
<path d="M18.3783 5.03947C18.3652 4.67015 18.2093 4.32031 17.9435 4.06364C17.6776 3.80698 17.3225 3.66354 16.9529 3.66354C16.5833 3.66354 16.2282 3.80698 15.9623 4.06364C15.6965 4.32031 15.5406 4.67015 15.5275 5.03947L15.5275 15.0438L5.52319 15.0438C5.33177 15.0371 5.14096 15.0689 4.96213 15.1375C4.7833 15.2061 4.62012 15.31 4.48232 15.443C4.34452 15.5761 4.23492 15.7355 4.16007 15.9118C4.08521 16.0881 4.04664 16.2776 4.04664 16.4692C4.04664 16.6607 4.08521 16.8503 4.16007 17.0266C4.23492 17.2029 4.34452 17.3623 4.48232 17.4953C4.62012 17.6283 4.7833 17.7322 4.96213 17.8008C5.14096 17.8694 5.33178 17.9013 5.52319 17.8945L15.5275 17.8945L15.5276 27.8989C15.5208 28.0903 15.5527 28.2811 15.6212 28.4599C15.6898 28.6388 15.7937 28.802 15.9268 28.9398C16.0598 29.0776 16.2192 29.1872 16.3955 29.262C16.5718 29.3369 16.7614 29.3754 16.9529 29.3754C17.1444 29.3754 17.334 29.3369 17.5103 29.262C17.6866 29.1872 17.846 29.0776 17.979 28.9398C18.1121 28.802 18.216 28.6388 18.2846 28.46C18.3531 28.2811 18.385 28.0903 18.3783 27.8989L18.3783 17.8945L28.3826 17.8945C28.7519 17.8815 29.1018 17.7256 29.3584 17.4597C29.6151 17.1939 29.7585 16.8387 29.7585 16.4692C29.7585 16.0996 29.6151 15.7445 29.3584 15.4786C29.1018 15.2127 28.7519 15.0569 28.3826 15.0438L18.3783 15.0438L18.3783 5.03947Z" fill="url(#paint0_linear_1684_2689)"/>
<path d="M18.3783 5.03947C18.3652 4.67015 18.2093 4.32031 17.9435 4.06364C17.6776 3.80698 17.3225 3.66354 16.9529 3.66354C16.5833 3.66354 16.2282 3.80698 15.9623 4.06364C15.6965 4.32031 15.5406 4.67015 15.5275 5.03947L15.5275 15.0438L5.52319 15.0438C5.33177 15.0371 5.14096 15.0689 4.96213 15.1375C4.7833 15.2061 4.62012 15.31 4.48232 15.443C4.34452 15.5761 4.23492 15.7355 4.16007 15.9118C4.08521 16.0881 4.04664 16.2776 4.04664 16.4692C4.04664 16.6607 4.08521 16.8503 4.16007 17.0266C4.23492 17.2029 4.34452 17.3623 4.48232 17.4953C4.62012 17.6283 4.7833 17.7322 4.96213 17.8008C5.14096 17.8694 5.33178 17.9013 5.52319 17.8945L15.5275 17.8945L15.5276 27.8989C15.5208 28.0903 15.5527 28.2811 15.6212 28.4599C15.6898 28.6388 15.7937 28.802 15.9268 28.9398C16.0598 29.0776 16.2192 29.1872 16.3955 29.262C16.5718 29.3369 16.7614 29.3754 16.9529 29.3754C17.1444 29.3754 17.334 29.3369 17.5103 29.262C17.6866 29.1872 17.846 29.0776 17.979 28.9398C18.1121 28.802 18.216 28.6388 18.2846 28.46C18.3531 28.2811 18.385 28.0903 18.3783 27.8989L18.3783 17.8945L28.3826 17.8945C28.7519 17.8815 29.1018 17.7256 29.3584 17.4597C29.6151 17.1939 29.7585 16.8387 29.7585 16.4692C29.7585 16.0996 29.6151 15.7445 29.3584 15.4786C29.1018 15.2127 28.7519 15.0569 28.3826 15.0438L18.3783 15.0438L18.3783 5.03947Z" stroke="#FDA913"/>
<defs>
<linearGradient id="paint0_linear_1684_2689" x1="10.1792" y1="9.74583" x2="23.6955" y2="23.2249" gradientUnits="userSpaceOnUse">
<stop stop-color="#1D2668"/>
<stop offset="0.541667" stop-color="#171E54"/>
<stop offset="1" stop-color="#141D48"/>
</linearGradient>
</defs>
</svg>
